G04 Layer: TopSilkLayer*
G04 EasyEDA v6.4.20.6, 2021-07-28T17:52:38+05:30*
G04 7673a310b3b046d6880bcf56e2675785,cb7c4d428bdd4184835f340970a17a1a,10*
G04 Gerber Generator version 0.2*
G04 Scale: 100 percent, Rotated: No, Reflected: No *
G04 Dimensions in millimeters *
G04 leading zeros omitted , absolute positions ,4 integer and 5 decimal *
%FSLAX45Y45*%
%MOMM*%

%ADD10C,0.2540*%
%ADD22C,0.2000*%
%ADD23C,0.5588*%
%ADD24C,0.4000*%
%ADD25C,0.2032*%
%ADD26C,0.1524*%

%LPD*%
D25*
X7035800Y3392678D02*
G01*
X7035800Y3198876D01*
X7035800Y3392678D02*
G01*
X7100570Y3392678D01*
X7128256Y3383534D01*
X7146543Y3364992D01*
X7155941Y3346450D01*
X7165086Y3318763D01*
X7165086Y3272789D01*
X7155941Y3244850D01*
X7146543Y3226562D01*
X7128256Y3208020D01*
X7100570Y3198876D01*
X7035800Y3198876D01*
X7272274Y3328162D02*
G01*
X7253731Y3318763D01*
X7235190Y3300476D01*
X7226045Y3272789D01*
X7226045Y3254247D01*
X7235190Y3226562D01*
X7253731Y3208020D01*
X7272274Y3198876D01*
X7299959Y3198876D01*
X7318502Y3208020D01*
X7336790Y3226562D01*
X7346188Y3254247D01*
X7346188Y3272789D01*
X7336790Y3300476D01*
X7318502Y3318763D01*
X7299959Y3328162D01*
X7272274Y3328162D01*
X7453375Y3328162D02*
G01*
X7434834Y3318763D01*
X7416291Y3300476D01*
X7407147Y3272789D01*
X7407147Y3254247D01*
X7416291Y3226562D01*
X7434834Y3208020D01*
X7453375Y3198876D01*
X7481061Y3198876D01*
X7499350Y3208020D01*
X7517891Y3226562D01*
X7527290Y3254247D01*
X7527290Y3272789D01*
X7517891Y3300476D01*
X7499350Y3318763D01*
X7481061Y3328162D01*
X7453375Y3328162D01*
X7588250Y3328162D02*
G01*
X7588250Y3198876D01*
X7588250Y3272789D02*
G01*
X7597393Y3300476D01*
X7615936Y3318763D01*
X7634224Y3328162D01*
X7661909Y3328162D01*
X7994650Y3364992D02*
G01*
X7976108Y3383534D01*
X7948422Y3392678D01*
X7911338Y3392678D01*
X7883652Y3383534D01*
X7865109Y3364992D01*
X7865109Y3346450D01*
X7874508Y3328162D01*
X7883652Y3318763D01*
X7902193Y3309620D01*
X7957565Y3291078D01*
X7976108Y3281934D01*
X7985252Y3272789D01*
X7994650Y3254247D01*
X7994650Y3226562D01*
X7976108Y3208020D01*
X7948422Y3198876D01*
X7911338Y3198876D01*
X7883652Y3208020D01*
X7865109Y3226562D01*
X8055609Y3272789D02*
G01*
X8166354Y3272789D01*
X8166354Y3291078D01*
X8157209Y3309620D01*
X8147811Y3318763D01*
X8129270Y3328162D01*
X8101584Y3328162D01*
X8083295Y3318763D01*
X8064754Y3300476D01*
X8055609Y3272789D01*
X8055609Y3254247D01*
X8064754Y3226562D01*
X8083295Y3208020D01*
X8101584Y3198876D01*
X8129270Y3198876D01*
X8147811Y3208020D01*
X8166354Y3226562D01*
X8338058Y3300476D02*
G01*
X8319770Y3318763D01*
X8301227Y3328162D01*
X8273541Y3328162D01*
X8255000Y3318763D01*
X8236458Y3300476D01*
X8227313Y3272789D01*
X8227313Y3254247D01*
X8236458Y3226562D01*
X8255000Y3208020D01*
X8273541Y3198876D01*
X8301227Y3198876D01*
X8319770Y3208020D01*
X8338058Y3226562D01*
X8399018Y3328162D02*
G01*
X8399018Y3235705D01*
X8408415Y3208020D01*
X8426704Y3198876D01*
X8454390Y3198876D01*
X8472931Y3208020D01*
X8500618Y3235705D01*
X8500618Y3328162D02*
G01*
X8500618Y3198876D01*
X8561577Y3328162D02*
G01*
X8561577Y3198876D01*
X8561577Y3272789D02*
G01*
X8570975Y3300476D01*
X8589263Y3318763D01*
X8607806Y3328162D01*
X8635491Y3328162D01*
X8696452Y3392678D02*
G01*
X8705850Y3383534D01*
X8714993Y3392678D01*
X8705850Y3402076D01*
X8696452Y3392678D01*
X8705850Y3328162D02*
G01*
X8705850Y3198876D01*
X8803640Y3392678D02*
G01*
X8803640Y3235705D01*
X8812784Y3208020D01*
X8831325Y3198876D01*
X8849868Y3198876D01*
X8775954Y3328162D02*
G01*
X8840470Y3328162D01*
X8919972Y3328162D02*
G01*
X8975343Y3198876D01*
X9030970Y3328162D02*
G01*
X8975343Y3198876D01*
X8957056Y3161792D01*
X8938513Y3143250D01*
X8919972Y3134105D01*
X8910827Y3134105D01*
X9363456Y3364992D02*
G01*
X9344913Y3383534D01*
X9317227Y3392678D01*
X9280143Y3392678D01*
X9252458Y3383534D01*
X9234170Y3364992D01*
X9234170Y3346450D01*
X9243313Y3328162D01*
X9252458Y3318763D01*
X9271000Y3309620D01*
X9326372Y3291078D01*
X9344913Y3281934D01*
X9354058Y3272789D01*
X9363456Y3254247D01*
X9363456Y3226562D01*
X9344913Y3208020D01*
X9317227Y3198876D01*
X9280143Y3198876D01*
X9252458Y3208020D01*
X9234170Y3226562D01*
X9433559Y3328162D02*
G01*
X9488931Y3198876D01*
X9544304Y3328162D02*
G01*
X9488931Y3198876D01*
X9470390Y3161792D01*
X9452102Y3143250D01*
X9433559Y3134105D01*
X9424415Y3134105D01*
X9706863Y3300476D02*
G01*
X9697720Y3318763D01*
X9670034Y3328162D01*
X9642347Y3328162D01*
X9614661Y3318763D01*
X9605263Y3300476D01*
X9614661Y3281934D01*
X9632950Y3272789D01*
X9679177Y3263392D01*
X9697720Y3254247D01*
X9706863Y3235705D01*
X9706863Y3226562D01*
X9697720Y3208020D01*
X9670034Y3198876D01*
X9642347Y3198876D01*
X9614661Y3208020D01*
X9605263Y3226562D01*
X9795509Y3392678D02*
G01*
X9795509Y3235705D01*
X9804908Y3208020D01*
X9823450Y3198876D01*
X9841738Y3198876D01*
X9767824Y3328162D02*
G01*
X9832593Y3328162D01*
X9902697Y3272789D02*
G01*
X10013695Y3272789D01*
X10013695Y3291078D01*
X10004297Y3309620D01*
X9995154Y3318763D01*
X9976611Y3328162D01*
X9948925Y3328162D01*
X9930384Y3318763D01*
X9912095Y3300476D01*
X9902697Y3272789D01*
X9902697Y3254247D01*
X9912095Y3226562D01*
X9930384Y3208020D01*
X9948925Y3198876D01*
X9976611Y3198876D01*
X9995154Y3208020D01*
X10013695Y3226562D01*
X10074656Y3328162D02*
G01*
X10074656Y3198876D01*
X10074656Y3291078D02*
G01*
X10102341Y3318763D01*
X10120629Y3328162D01*
X10148570Y3328162D01*
X10166858Y3318763D01*
X10176256Y3291078D01*
X10176256Y3198876D01*
X10176256Y3291078D02*
G01*
X10203941Y3318763D01*
X10222229Y3328162D01*
X10250170Y3328162D01*
X10268458Y3318763D01*
X10277856Y3291078D01*
X10277856Y3198876D01*
D26*
X4040504Y2419985D02*
G01*
X4040504Y2528951D01*
X4040504Y2419985D02*
G01*
X3972940Y2419985D01*
X4040504Y2471801D02*
G01*
X3998849Y2471801D01*
X4040504Y2528951D02*
G01*
X3972940Y2528951D01*
X3866006Y2435479D02*
G01*
X3876420Y2425064D01*
X3891915Y2419985D01*
X3912743Y2419985D01*
X3928236Y2425064D01*
X3938650Y2435479D01*
X3938650Y2445893D01*
X3933570Y2456306D01*
X3928236Y2461640D01*
X3917822Y2466720D01*
X3886834Y2477135D01*
X3876420Y2482214D01*
X3871086Y2487548D01*
X3866006Y2497962D01*
X3866006Y2513456D01*
X3876420Y2523870D01*
X3891915Y2528951D01*
X3912743Y2528951D01*
X3928236Y2523870D01*
X3938650Y2513456D01*
X3831716Y2419985D02*
G01*
X3831716Y2528951D01*
X3831716Y2419985D02*
G01*
X3784981Y2419985D01*
X3769233Y2425064D01*
X3764152Y2430398D01*
X3758818Y2440812D01*
X3758818Y2456306D01*
X3764152Y2466720D01*
X3769233Y2471801D01*
X3784981Y2477135D01*
X3831716Y2477135D01*
X3724529Y2440812D02*
G01*
X3714115Y2435479D01*
X3698620Y2419985D01*
X3698620Y2528951D01*
D25*
X4514977Y3589146D02*
G01*
X4514977Y3783203D01*
X4514977Y3589146D02*
G01*
X4394834Y3589146D01*
X4514977Y3681603D02*
G01*
X4441063Y3681603D01*
X4514977Y3783203D02*
G01*
X4394834Y3783203D01*
X4204588Y3616832D02*
G01*
X4223131Y3598290D01*
X4250816Y3589146D01*
X4287647Y3589146D01*
X4315586Y3598290D01*
X4333875Y3616832D01*
X4333875Y3635375D01*
X4324731Y3653917D01*
X4315586Y3663061D01*
X4297045Y3672204D01*
X4241672Y3690746D01*
X4223131Y3699890D01*
X4213986Y3709288D01*
X4204588Y3727830D01*
X4204588Y3755517D01*
X4223131Y3773804D01*
X4250816Y3783203D01*
X4287647Y3783203D01*
X4315586Y3773804D01*
X4333875Y3755517D01*
X4143629Y3589146D02*
G01*
X4143629Y3783203D01*
X4143629Y3589146D02*
G01*
X4060570Y3589146D01*
X4032884Y3598290D01*
X4023486Y3607688D01*
X4014343Y3626230D01*
X4014343Y3653917D01*
X4023486Y3672204D01*
X4032884Y3681603D01*
X4060570Y3690746D01*
X4143629Y3690746D01*
X3934840Y3589146D02*
G01*
X3833240Y3589146D01*
X3888866Y3663061D01*
X3860927Y3663061D01*
X3842638Y3672204D01*
X3833240Y3681603D01*
X3824097Y3709288D01*
X3824097Y3727830D01*
X3833240Y3755517D01*
X3851783Y3773804D01*
X3879468Y3783203D01*
X3907154Y3783203D01*
X3934840Y3773804D01*
X3944238Y3764661D01*
X3953383Y3746119D01*
X3753993Y3635375D02*
G01*
X3753993Y3626230D01*
X3744595Y3607688D01*
X3735450Y3598290D01*
X3716909Y3589146D01*
X3680079Y3589146D01*
X3661536Y3598290D01*
X3652393Y3607688D01*
X3642995Y3626230D01*
X3642995Y3644519D01*
X3652393Y3663061D01*
X3670681Y3690746D01*
X3763136Y3783203D01*
X3633850Y3783203D01*
X4526915Y3920617D02*
G01*
X4526915Y4114419D01*
X4526915Y3920617D02*
G01*
X4453000Y4114419D01*
X4379086Y3920617D02*
G01*
X4453000Y4114419D01*
X4379086Y3920617D02*
G01*
X4379086Y4114419D01*
X4272152Y3985132D02*
G01*
X4290440Y3994530D01*
X4308983Y4012819D01*
X4318127Y4040504D01*
X4318127Y4059046D01*
X4308983Y4086732D01*
X4290440Y4105275D01*
X4272152Y4114419D01*
X4244466Y4114419D01*
X4225925Y4105275D01*
X4207383Y4086732D01*
X4198238Y4059046D01*
X4198238Y4040504D01*
X4207383Y4012819D01*
X4225925Y3994530D01*
X4244466Y3985132D01*
X4272152Y3985132D01*
X4026281Y3920617D02*
G01*
X4026281Y4114419D01*
X4026281Y4012819D02*
G01*
X4044822Y3994530D01*
X4063365Y3985132D01*
X4091050Y3985132D01*
X4109593Y3994530D01*
X4127881Y4012819D01*
X4137279Y4040504D01*
X4137279Y4059046D01*
X4127881Y4086732D01*
X4109593Y4105275D01*
X4091050Y4114419D01*
X4063365Y4114419D01*
X4044822Y4105275D01*
X4026281Y4086732D01*
X3965320Y3985132D02*
G01*
X3965320Y4077588D01*
X3956177Y4105275D01*
X3937634Y4114419D01*
X3909949Y4114419D01*
X3891406Y4105275D01*
X3863720Y4077588D01*
X3863720Y3985132D02*
G01*
X3863720Y4114419D01*
X3802761Y3920617D02*
G01*
X3802761Y4114419D01*
X3741800Y4040504D02*
G01*
X3631056Y4040504D01*
X3631056Y4022217D01*
X3640200Y4003675D01*
X3649599Y3994530D01*
X3667886Y3985132D01*
X3695827Y3985132D01*
X3714115Y3994530D01*
X3732656Y4012819D01*
X3741800Y4040504D01*
X3741800Y4059046D01*
X3732656Y4086732D01*
X3714115Y4105275D01*
X3695827Y4114419D01*
X3667886Y4114419D01*
X3649599Y4105275D01*
X3631056Y4086732D01*
D26*
X5715000Y3988815D02*
G01*
X5715000Y3879850D01*
X5715000Y3988815D02*
G01*
X5761736Y3988815D01*
X5777229Y3983736D01*
X5782563Y3978402D01*
X5787643Y3967987D01*
X5787643Y3952494D01*
X5782563Y3942079D01*
X5777229Y3937000D01*
X5761736Y3931665D01*
X5715000Y3931665D01*
X5821934Y3967987D02*
G01*
X5832347Y3973321D01*
X5848095Y3988815D01*
X5848095Y3879850D01*
X10465815Y4152900D02*
G01*
X10356850Y4152900D01*
X10465815Y4152900D02*
G01*
X10465815Y4106163D01*
X10460736Y4090670D01*
X10455402Y4085336D01*
X10444988Y4080255D01*
X10429493Y4080255D01*
X10419079Y4085336D01*
X10414000Y4090670D01*
X10408665Y4106163D01*
X10408665Y4152900D01*
X10439908Y4040631D02*
G01*
X10444988Y4040631D01*
X10455402Y4035552D01*
X10460736Y4030218D01*
X10465815Y4019804D01*
X10465815Y3999229D01*
X10460736Y3988815D01*
X10455402Y3983481D01*
X10444988Y3978402D01*
X10434574Y3978402D01*
X10424159Y3983481D01*
X10408665Y3993895D01*
X10356850Y4045965D01*
X10356850Y3973068D01*
X10415015Y6908800D02*
G01*
X10306050Y6908800D01*
X10415015Y6908800D02*
G01*
X10415015Y6862063D01*
X10409936Y6846570D01*
X10404602Y6841236D01*
X10394188Y6836155D01*
X10378693Y6836155D01*
X10368279Y6841236D01*
X10363200Y6846570D01*
X10357865Y6862063D01*
X10357865Y6908800D01*
X10415015Y6791452D02*
G01*
X10415015Y6734302D01*
X10373359Y6765289D01*
X10373359Y6749795D01*
X10368279Y6739381D01*
X10363200Y6734302D01*
X10347452Y6728968D01*
X10337038Y6728968D01*
X10321543Y6734302D01*
X10311129Y6744715D01*
X10306050Y6760210D01*
X10306050Y6775704D01*
X10311129Y6791452D01*
X10316209Y6796531D01*
X10326624Y6801865D01*
X10453115Y5549900D02*
G01*
X10344150Y5549900D01*
X10453115Y5549900D02*
G01*
X10453115Y5503163D01*
X10448036Y5487670D01*
X10442702Y5482336D01*
X10432288Y5477255D01*
X10416793Y5477255D01*
X10406379Y5482336D01*
X10401300Y5487670D01*
X10395965Y5503163D01*
X10395965Y5549900D01*
X10453115Y5390895D02*
G01*
X10380472Y5442965D01*
X10380472Y5364987D01*
X10453115Y5390895D02*
G01*
X10344150Y5390895D01*
X8154212Y5523814D02*
G01*
X8154212Y5632780D01*
X8081568Y5523814D02*
G01*
X8154212Y5596458D01*
X8128304Y5570550D02*
G01*
X8081568Y5632780D01*
X8041944Y5549722D02*
G01*
X8041944Y5544642D01*
X8036864Y5534228D01*
X8031530Y5528894D01*
X8021116Y5523814D01*
X8000542Y5523814D01*
X7990128Y5528894D01*
X7984794Y5534228D01*
X7979714Y5544642D01*
X7979714Y5555056D01*
X7984794Y5565470D01*
X7995208Y5580964D01*
X8047278Y5632780D01*
X7974380Y5632780D01*
X6654800Y4278884D02*
G01*
X6654800Y4356862D01*
X6649720Y4372355D01*
X6639306Y4382770D01*
X6623558Y4387850D01*
X6613143Y4387850D01*
X6597650Y4382770D01*
X6587236Y4372355D01*
X6582156Y4356862D01*
X6582156Y4278884D01*
X6542531Y4304792D02*
G01*
X6542531Y4299712D01*
X6537452Y4289297D01*
X6532118Y4283963D01*
X6521704Y4278884D01*
X6501129Y4278884D01*
X6490715Y4283963D01*
X6485381Y4289297D01*
X6480302Y4299712D01*
X6480302Y4310126D01*
X6485381Y4320539D01*
X6495795Y4336034D01*
X6547865Y4387850D01*
X6474968Y4387850D01*
X6362191Y7037565D02*
G01*
X6351777Y7032231D01*
X6341363Y7021817D01*
X6336284Y7011657D01*
X6336284Y6990829D01*
X6341363Y6980415D01*
X6351777Y6970001D01*
X6362191Y6964667D01*
X6377940Y6959587D01*
X6403847Y6959587D01*
X6419341Y6964667D01*
X6429756Y6970001D01*
X6440170Y6980415D01*
X6445250Y6990829D01*
X6445250Y7011657D01*
X6440170Y7021817D01*
X6429756Y7032231D01*
X6419341Y7037565D01*
X6357111Y7071855D02*
G01*
X6351777Y7082269D01*
X6336284Y7097763D01*
X6445250Y7097763D01*
X6351777Y7194537D02*
G01*
X6341363Y7189203D01*
X6336284Y7173709D01*
X6336284Y7163295D01*
X6341363Y7147547D01*
X6357111Y7137387D01*
X6383020Y7132053D01*
X6408927Y7132053D01*
X6429756Y7137387D01*
X6440170Y7147547D01*
X6445250Y7163295D01*
X6445250Y7168375D01*
X6440170Y7184123D01*
X6429756Y7194537D01*
X6414261Y7199617D01*
X6408927Y7199617D01*
X6393434Y7194537D01*
X6383020Y7184123D01*
X6377940Y7168375D01*
X6377940Y7163295D01*
X6383020Y7147547D01*
X6393434Y7137387D01*
X6408927Y7132053D01*
X7189190Y7006104D02*
G01*
X7080224Y7006104D01*
X7189190Y7006104D02*
G01*
X7189190Y6969782D01*
X7184110Y6954034D01*
X7173696Y6943874D01*
X7163282Y6938540D01*
X7147534Y6933460D01*
X7121626Y6933460D01*
X7106132Y6938540D01*
X7095718Y6943874D01*
X7085304Y6954034D01*
X7080224Y6969782D01*
X7080224Y7006104D01*
X7189190Y6888756D02*
G01*
X7189190Y6831606D01*
X7147534Y6862594D01*
X7147534Y6847100D01*
X7142454Y6836686D01*
X7137374Y6831606D01*
X7121626Y6826272D01*
X7111212Y6826272D01*
X7095718Y6831606D01*
X7085304Y6842020D01*
X7080224Y6857514D01*
X7080224Y6873008D01*
X7085304Y6888756D01*
X7090384Y6893836D01*
X7100798Y6899170D01*
X6598158Y6044184D02*
G01*
X6608572Y6049263D01*
X6618986Y6059678D01*
X6624320Y6070092D01*
X6629400Y6085839D01*
X6629400Y6111747D01*
X6624320Y6127242D01*
X6618986Y6137655D01*
X6608572Y6148070D01*
X6598158Y6153150D01*
X6577329Y6153150D01*
X6567170Y6148070D01*
X6556756Y6137655D01*
X6551422Y6127242D01*
X6546341Y6111747D01*
X6546341Y6085839D01*
X6551422Y6070092D01*
X6556756Y6059678D01*
X6567170Y6049263D01*
X6577329Y6044184D01*
X6598158Y6044184D01*
X6582663Y6132576D02*
G01*
X6551422Y6163563D01*
X6506718Y6070092D02*
G01*
X6506718Y6065012D01*
X6501638Y6054597D01*
X6496304Y6049263D01*
X6485890Y6044184D01*
X6465315Y6044184D01*
X6454902Y6049263D01*
X6449568Y6054597D01*
X6444488Y6065012D01*
X6444488Y6075426D01*
X6449568Y6085839D01*
X6459981Y6101334D01*
X6512052Y6153150D01*
X6439154Y6153150D01*
X5637784Y6319707D02*
G01*
X5746750Y6319707D01*
X5637784Y6319707D02*
G01*
X5637784Y6366443D01*
X5642863Y6381937D01*
X5648197Y6387271D01*
X5658611Y6392351D01*
X5669025Y6392351D01*
X5679440Y6387271D01*
X5684520Y6381937D01*
X5689600Y6366443D01*
X5689600Y6319707D01*
X5689600Y6356029D02*
G01*
X5746750Y6392351D01*
X5658611Y6426641D02*
G01*
X5653277Y6437055D01*
X5637784Y6452803D01*
X5746750Y6452803D01*
X5658611Y6487093D02*
G01*
X5653277Y6497507D01*
X5637784Y6513001D01*
X5746750Y6513001D01*
X6018784Y6319707D02*
G01*
X6127750Y6319707D01*
X6018784Y6319707D02*
G01*
X6018784Y6366443D01*
X6023863Y6381937D01*
X6029197Y6387271D01*
X6039611Y6392351D01*
X6050025Y6392351D01*
X6060440Y6387271D01*
X6065520Y6381937D01*
X6070600Y6366443D01*
X6070600Y6319707D01*
X6070600Y6356029D02*
G01*
X6127750Y6392351D01*
X6039611Y6426641D02*
G01*
X6034277Y6437055D01*
X6018784Y6452803D01*
X6127750Y6452803D01*
X6018784Y6518081D02*
G01*
X6023863Y6502587D01*
X6039611Y6492173D01*
X6065520Y6487093D01*
X6081013Y6487093D01*
X6107175Y6492173D01*
X6122670Y6502587D01*
X6127750Y6518081D01*
X6127750Y6528495D01*
X6122670Y6544243D01*
X6107175Y6554657D01*
X6081013Y6559737D01*
X6065520Y6559737D01*
X6039611Y6554657D01*
X6023863Y6544243D01*
X6018784Y6528495D01*
X6018784Y6518081D01*
X6172708Y7237221D02*
G01*
X6183122Y7242555D01*
X6193536Y7252970D01*
X6198615Y7263129D01*
X6198615Y7283958D01*
X6193536Y7294371D01*
X6183122Y7304786D01*
X6172708Y7310120D01*
X6156959Y7315200D01*
X6131052Y7315200D01*
X6115558Y7310120D01*
X6105143Y7304786D01*
X6094729Y7294371D01*
X6089650Y7283958D01*
X6089650Y7263129D01*
X6094729Y7252970D01*
X6105143Y7242555D01*
X6115558Y7237221D01*
X6177788Y7202931D02*
G01*
X6183122Y7192518D01*
X6198615Y7177023D01*
X6089650Y7177023D01*
X6198615Y7080250D02*
G01*
X6198615Y7132320D01*
X6151879Y7137400D01*
X6156959Y7132320D01*
X6162293Y7116826D01*
X6162293Y7101078D01*
X6156959Y7085584D01*
X6146800Y7075170D01*
X6131052Y7070089D01*
X6120638Y7070089D01*
X6105143Y7075170D01*
X6094729Y7085584D01*
X6089650Y7101078D01*
X6089650Y7116826D01*
X6094729Y7132320D01*
X6099809Y7137400D01*
X6110224Y7142734D01*
X5867908Y7237221D02*
G01*
X5878322Y7242555D01*
X5888736Y7252970D01*
X5893815Y7263129D01*
X5893815Y7283958D01*
X5888736Y7294371D01*
X5878322Y7304786D01*
X5867908Y7310120D01*
X5852159Y7315200D01*
X5826252Y7315200D01*
X5810758Y7310120D01*
X5800343Y7304786D01*
X5789929Y7294371D01*
X5784850Y7283958D01*
X5784850Y7263129D01*
X5789929Y7252970D01*
X5800343Y7242555D01*
X5810758Y7237221D01*
X5872988Y7202931D02*
G01*
X5878322Y7192518D01*
X5893815Y7177023D01*
X5784850Y7177023D01*
X5893815Y7090663D02*
G01*
X5821172Y7142734D01*
X5821172Y7064755D01*
X5893815Y7090663D02*
G01*
X5784850Y7090663D01*
D10*
X5015306Y2654833D02*
G01*
X4715306Y2654833D01*
X4715306Y3054832D01*
X5015306Y3054832D01*
X5015306Y2654833D01*
X4945811Y6948195D02*
G01*
X3145815Y6948195D01*
X3145815Y7648194D01*
X4945811Y7648194D01*
X4945811Y6948195D01*
X4793995Y5246827D02*
G01*
X3293999Y5246827D01*
X3293999Y6946823D01*
X4793995Y6946823D01*
X4793995Y5246827D01*
X4390136Y2564587D02*
G01*
X3690137Y2564587D01*
X3690137Y3064586D01*
X4390136Y3064586D01*
X4390136Y2564587D01*
X3246856Y2655570D02*
G01*
X2946857Y2655570D01*
X2946857Y3055569D01*
X3246856Y3055569D01*
X3246856Y2655570D01*
X5461254Y2561920D02*
G01*
X2611247Y2561920D01*
X2611247Y7670952D01*
X5461254Y7670952D01*
X5461254Y2561920D01*
X5702300Y3124200D02*
G01*
X5638800Y3124200D01*
X5638800Y3038518D01*
X5702300Y3038518D01*
X5702300Y3679781D02*
G01*
X5638800Y3679781D01*
X5638800Y3594100D01*
X5702300Y3594100D01*
X5702300Y3039219D02*
G01*
X6718300Y3039219D01*
X5702300Y3191619D02*
G01*
X6718300Y3191619D01*
X5702300Y3587856D02*
G01*
X6718300Y3587856D01*
X5702300Y2980903D02*
G01*
X6718300Y2980903D01*
X6718300Y3800896D02*
G01*
X6718300Y2980903D01*
X5702300Y3800896D02*
G01*
X5702300Y2980903D01*
X5702300Y3800896D02*
G01*
X6718300Y3800896D01*
X9626600Y4610100D02*
G01*
X9626600Y4673600D01*
X9540918Y4673600D01*
X9540918Y4610100D01*
X10182181Y4610100D02*
G01*
X10182181Y4673600D01*
X10096500Y4673600D01*
X10096500Y4610100D01*
X9541619Y4610100D02*
G01*
X9541619Y3594100D01*
X9694019Y4610100D02*
G01*
X9694019Y3594100D01*
X10090256Y4610100D02*
G01*
X10090256Y3594100D01*
X9483303Y4610100D02*
G01*
X9483303Y3594100D01*
X10303296Y3594100D02*
G01*
X9483303Y3594100D01*
X10303296Y4610100D02*
G01*
X9483303Y4610100D01*
X10303296Y4610100D02*
G01*
X10303296Y3594100D01*
X9575800Y7366000D02*
G01*
X9575800Y7429500D01*
X9490118Y7429500D01*
X9490118Y7366000D01*
X10131381Y7366000D02*
G01*
X10131381Y7429500D01*
X10045700Y7429500D01*
X10045700Y7366000D01*
X9490819Y7366000D02*
G01*
X9490819Y6350000D01*
X9643219Y7366000D02*
G01*
X9643219Y6350000D01*
X10039456Y7366000D02*
G01*
X10039456Y6350000D01*
X9432503Y7366000D02*
G01*
X9432503Y6350000D01*
X10252496Y6350000D02*
G01*
X9432503Y6350000D01*
X10252496Y7366000D02*
G01*
X9432503Y7366000D01*
X10252496Y7366000D02*
G01*
X10252496Y6350000D01*
X9613900Y6007100D02*
G01*
X9613900Y6070600D01*
X9528218Y6070600D01*
X9528218Y6007100D01*
X10169481Y6007100D02*
G01*
X10169481Y6070600D01*
X10083800Y6070600D01*
X10083800Y6007100D01*
X9528919Y6007100D02*
G01*
X9528919Y4991100D01*
X9681319Y6007100D02*
G01*
X9681319Y4991100D01*
X10077556Y6007100D02*
G01*
X10077556Y4991100D01*
X9470603Y6007100D02*
G01*
X9470603Y4991100D01*
X10290596Y4991100D02*
G01*
X9470603Y4991100D01*
X10290596Y6007100D02*
G01*
X9470603Y6007100D01*
X10290596Y6007100D02*
G01*
X10290596Y4991100D01*
X9179262Y7380488D02*
G01*
X7129264Y7380488D01*
X8749162Y6100488D02*
G01*
X8749093Y6240487D01*
X8749162Y6980486D02*
G01*
X8749093Y6830479D01*
X7489164Y6548640D02*
G01*
X8434793Y6548640D01*
X8809113Y6820496D01*
X9179262Y5700486D02*
G01*
X7129264Y5700486D01*
X9179262Y5700486D02*
G01*
X9179262Y7380488D01*
X7129264Y5700486D02*
G01*
X7129261Y7380488D01*
X7174199Y4459391D02*
G01*
X6114003Y4459391D01*
X6114003Y4939197D01*
X7174199Y4939197D01*
X7174199Y4459899D01*
X7174199Y4459391D01*
X6114105Y4519302D02*
G01*
X7174097Y4519302D01*
X6478600Y6789587D02*
G01*
X6478600Y7129586D01*
X6678599Y6789587D02*
G01*
X6678599Y7129586D01*
X6478600Y7014329D02*
G01*
X6678599Y7014329D01*
X7026899Y7097699D02*
G01*
X7026899Y6897700D01*
X6866900Y7097699D02*
G01*
X6866900Y6897700D01*
X7026899Y7032823D02*
G01*
X6866900Y7032823D01*
X6612890Y6457899D02*
G01*
X6694398Y6457899D01*
X6694398Y6391910D01*
X6694398Y6231889D02*
G01*
X6694398Y6165900D01*
X6694398Y6231889D01*
X6694398Y6165900D01*
X6612890Y6165900D01*
D22*
X6539407Y6341897D02*
G01*
X6539407Y6281902D01*
D10*
X5787397Y6169604D02*
G01*
X5947402Y6169604D01*
X5946891Y6354665D02*
G01*
X5946891Y6479661D01*
X5786887Y6354665D02*
G01*
X5786887Y6479661D01*
X5947402Y6294607D02*
G01*
X5947402Y6169604D01*
X5787397Y6294607D02*
G01*
X5787397Y6169604D01*
X5786887Y6479661D02*
G01*
X5946891Y6479661D01*
X6168397Y6169604D02*
G01*
X6328402Y6169604D01*
X6327891Y6354665D02*
G01*
X6327891Y6479661D01*
X6167887Y6354665D02*
G01*
X6167887Y6479661D01*
X6328402Y6294607D02*
G01*
X6328402Y6169604D01*
X6168397Y6294607D02*
G01*
X6168397Y6169604D01*
X6167887Y6479661D02*
G01*
X6327891Y6479661D01*
D23*
X6162040Y6908800D02*
G01*
X6156959Y6908800D01*
X5844540Y6896100D02*
G01*
X5839459Y6896100D01*
D10*
G75*
G01*
X7605078Y6551867D02*
G02*
X7595172Y6251892I-7393J-149907D01*
G75*
G01*
X7614983Y6851841D02*
G02*
X7605078Y6551867I-7392J-149907D01*
G75*
G01*
X7599164Y6250488D02*
G02*
X7679881Y5983465I-9406J-148554D01*
G75*
G01*
X7681943Y7137578D02*
G02*
X7615110Y6851891I-64506J-135570D01*
D24*
G75*
G01*
X6921099Y4991799D02*
G03*
X6920845Y4991799I-127J19999D01*
D10*
G75*
G01
X4933899Y2849067D02*
G03X4933899Y2849067I-66243J0D01*
G75*
G01
X3165475Y2849829D02*
G03X3165475Y2849829I-66243J0D01*
M02*
