M48
METRIC,LZ,000.000
;FILE_FORMAT=3:3
;TYPE=PLATED
;Layer: Drill PTH
;EasyEDA v6.4.20.6, 2021-07-28T17:52:38+05:30
;7673a310b3b046d6880bcf56e2675785,cb7c4d428bdd4184835f340970a17a1a,10
;Gerber Generator version 0.2
;Holesize 1 = 0.915 mm
T01C0.915
;Holesize 2 = 1.200 mm
T02C1.200
;Holesize 3 = 1.401 mm
T03C1.401
;Holesize 4 = 1.600 mm
T04C1.600
%
G05
G90
T01
X052959Y035687
X052959Y038227
X052959Y040767
X052959Y043307
X052959Y045847
X052959Y048387
X052959Y050927
X052959Y053467
X052959Y056007
X052959Y058547
X052959Y061087
X052959Y063627
X052959Y066167
X052959Y068707
X052959Y071247
X027559Y071247
X027559Y068707
X027559Y066167
X027559Y063627
X027559Y061087
X027559Y058547
X027559Y056007
X027559Y053467
X027559Y050927
X027559Y048387
X027559Y045847
X027559Y043307
X027559Y040767
X027559Y038227
X027559Y035687
T02
X066441Y047493
X063861Y047503
X068981Y047493
T03
X087491Y059405
X087491Y071405
X075291Y071405
X075291Y059405
X073291Y065405
T04
X059563Y033909
X064643Y033909
X098933Y043561
X098933Y038481
X098425Y071120
X098425Y066040
X098806Y057531
X098806Y052451
M30
