G04 Layer: BottomSolderMaskLayer*
G04 EasyEDA v6.4.20.6, 2021-07-28T17:52:38+05:30*
G04 7673a310b3b046d6880bcf56e2675785,cb7c4d428bdd4184835f340970a17a1a,10*
G04 Gerber Generator version 0.2*
G04 Scale: 100 percent, Rotated: No, Reflected: No *
G04 Dimensions in millimeters *
G04 leading zeros omitted , absolute positions ,4 integer and 5 decimal *
%FSLAX45Y45*%
%MOMM*%

%ADD27C,1.9016*%
%ADD29C,1.7272*%
%ADD30C,2.5016*%
%ADD31C,2.6416*%

%LPD*%
D27*
X6644101Y4709299D02*
G01*
X6644101Y4789299D01*
X6386088Y4710290D02*
G01*
X6386088Y4790290D01*
G36*
X5209540Y3482339D02*
G01*
X5209540Y3655060D01*
X5382259Y3655060D01*
X5382259Y3482339D01*
G37*
D29*
G01*
X5295900Y3822700D03*
G01*
X5295900Y4076700D03*
G01*
X5295900Y4330700D03*
G01*
X5295900Y4584700D03*
G01*
X5295900Y4838700D03*
G01*
X5295900Y5092700D03*
G01*
X5295900Y5346700D03*
G01*
X5295900Y5600700D03*
G01*
X5295900Y5854700D03*
G01*
X5295900Y6108700D03*
G01*
X5295900Y6362700D03*
G01*
X5295900Y6616700D03*
G01*
X5295900Y6870700D03*
G01*
X5295900Y7124700D03*
G01*
X2755900Y7124700D03*
G01*
X2755900Y6870700D03*
G01*
X2755900Y6616700D03*
G01*
X2755900Y6362700D03*
G01*
X2755900Y6108700D03*
G01*
X2755900Y5854700D03*
G01*
X2755900Y5600700D03*
G01*
X2755900Y5346700D03*
G01*
X2755900Y5092700D03*
G01*
X2755900Y4838700D03*
G01*
X2755900Y4584700D03*
G01*
X2755900Y4330700D03*
G01*
X2755900Y4076700D03*
G01*
X2755900Y3822700D03*
G01*
X2755900Y3568700D03*
D30*
G01*
X5956300Y3390900D03*
G01*
X6464300Y3390900D03*
G01*
X9893300Y4356100D03*
G01*
X9893300Y3848100D03*
G01*
X9842500Y7112000D03*
G01*
X9842500Y6604000D03*
G01*
X9880600Y5753100D03*
G01*
X9880600Y5245100D03*
D31*
G01*
X8749106Y5940501D03*
G01*
X8749106Y7140498D03*
G01*
X7529093Y7140498D03*
G01*
X7529093Y5940501D03*
G01*
X7329093Y6540500D03*
G36*
X6803136Y4614163D02*
G01*
X6803136Y4884420D01*
X6993127Y4884420D01*
X6993127Y4614163D01*
G37*
M02*
